<mxfile host="app.diagrams.net" modified="2023-11-11T09:42:15.492Z" agent="Mozilla/5.0 (Windows NT 10.0; Win64; x64) AppleWebKit/537.36 (KHTML, like Gecko) Chrome/119.0.0.0 Safari/537.36" version="22.1.0" etag="rV_1mFzIwEQ-JHwN_ZEe" type="github">
  <diagram name="페이지-1" id="MeaeADXvO4iu8NjLNxZM">
    <mxGraphModel>
      <root>
        <mxCell id="0" />
        <mxCell id="1" parent="0" />
      </root>
    </mxGraphModel>
  </diagram>
</mxfile>
